# xmcd
#
# Track frame offsets:
#	150
#	3936
#	22494
#	38611
#	51944
#	65528
#	86978
#	103571
#	108219
#	128887
#	135122
#	154936
#	178292
#	187658
#
# Disc length: 2759 seconds
#
# Revision: 1
# Processed by: cddbd v1.5.1PL2 Copyright (c) Steve Scherf et al.
# Submitted via: audiograbber 1.83.01
#
DISCID=b50ac50e
DTITLE=Chiodos - All's Well That Ends Well
DYEAR=2005
DGENRE=emocore
TTITLE0=Prelude
TTITLE1=All Nereids Beware
TTITLE2=One Day Women Will All Become Monsters
TTITLE3=Expired In Goreville
TTITLE4=Baby, You Wouldn't Last A Minute On The Creek
TTITLE5=Baby, You Wouldn't Last A Minute On The Creek
TTITLE6=The Words "Best Friend" Become Redefined
TTITLE7=Interlud Pt 1
TTITLE8=There's No Penguins In Alaska
TTITLE9=Interlud Pt 2
TTITLE10=We're Gonna Have Us A Champagne Jam
TTITLE11=No Hardcore Dancing In The Living Room
TTITLE12=Who's Sandie Jenkins
TTITLE13=To Trixie And Reptile, Thanks For Everything
EXTD=
EXTT0=
EXTT1=
EXTT2=
EXTT3=
EXTT4=
EXTT5=
EXTT6=
EXTT7=
EXTT8=
EXTT9=
EXTT10=
EXTT11=
EXTT12=
EXTT13=
PLAYORDER=
